<svg width="612" height="330" viewBox="0 0 612 330" fill="none" xmlns="http://www.w3.org/2000/svg">
<path d="M292.993 300.848C292.994 323.256 268.733 337.261 249.325 326.057L222.888 310.795C213.881 305.596 208.332 295.986 208.332 285.587L208.338 176.392C208.341 153.984 184.082 139.975 164.673 151.177L70.0794 205.777C61.0721 210.976 49.9747 210.976 40.9675 205.777L14.5561 190.53C-4.85218 179.326 -4.85199 151.316 14.5564 140.113L249.322 4.59206C268.73 -6.61136 292.989 7.39319 292.99 29.8005L292.993 300.848Z" fill="#222222"/>
<path fill-rule="evenodd" clip-rule="evenodd" d="M597.444 139.472C616.852 150.675 616.852 178.684 597.445 189.888L499.546 246.409C490.539 251.609 479.441 251.61 470.433 246.41L447.871 233.386C428.465 222.183 404.207 236.184 404.203 258.59L404.197 296.404C404.188 299.52 402.522 302.395 399.823 303.954L362.678 325.401C343.27 336.607 319.008 322.602 319.007 300.194L319.004 29.1523C319.003 6.74437 343.264 -7.26071 362.672 3.94323L597.444 139.472ZM429.59 156.853C453.261 170.518 477.99 172.002 484.823 160.168C491.656 148.334 478.007 127.663 454.336 113.998C430.665 100.333 405.936 98.8494 399.103 110.683C392.27 122.517 405.919 143.188 429.59 156.853Z" fill="#222222"/>
</svg>
