<svg width="1520" height="1244" viewBox="0 0 1520 1244" fill="none" xmlns="http://www.w3.org/2000/svg">
<path fill-rule="evenodd" clip-rule="evenodd" d="M606.857 16.8105C645.738 -4.99786 693.291 -4.44862 731.658 18.2519L1222.92 308.917C1228.5 312.217 1233.19 316.824 1236.6 322.341L1513.64 771.444C1525.52 790.693 1519.08 815.952 1499.44 827.174L779.873 1238.36C767.554 1245.4 752.428 1245.38 740.121 1238.32L20.763 825.576C4.22515 816.087 -3.31631 796.244 2.74448 778.166L172.298 272.429C175.454 263.016 181.997 255.113 190.655 250.257L606.857 16.8105ZM706.198 61.284C683.177 47.6636 654.645 47.3341 631.317 60.4191L310.818 240.186C283.618 255.442 283.564 294.575 310.722 309.906L752.322 559.196C760.313 563.708 769.632 565.382 778.64 563.629C932.888 533.619 1062.32 443.943 1139.17 373.421C1158.03 356.117 1153.76 326.091 1131.73 313.058L706.198 61.284ZM1237.12 418.423C1223.32 396.047 1192.02 392.775 1172.64 410.541C1095.3 481.43 969.424 569.378 817.412 606.316C798.733 610.855 785.013 627.236 785.013 646.46V1108.91C785.013 1139.62 818.192 1158.87 844.858 1143.64L1429.74 809.417C1449.38 798.195 1455.81 772.936 1443.94 753.686L1237.12 418.423ZM675.106 1143.37C701.772 1158.67 735.013 1139.42 735.013 1108.68V630.195C735.013 615.766 727.241 602.455 714.676 595.362L254.108 335.363C232.225 323.01 204.506 333.656 196.518 357.481L63.1804 755.197C57.1196 773.275 64.6611 793.117 81.199 802.606L675.106 1143.37Z" fill="black"/>
<path d="M649.541 406.883C639.975 412.406 624.466 412.406 614.9 406.883L397.607 281.429C388.041 275.906 388.041 266.951 397.607 261.429L472.547 218.162C490.426 207.84 508.181 200.998 525.813 197.636C543.363 194.227 560.052 193.73 575.88 196.145C591.626 198.512 605.732 203.294 618.197 210.491C628.694 216.552 635.624 222.778 638.987 229.17C642.267 235.515 642.841 241.812 640.709 248.062C638.676 253.932 635.002 259.543 629.687 264.896C629.23 265.357 629.354 265.938 630.005 266.314C630.764 266.752 631.982 266.768 632.798 266.365C641.313 262.168 651.7 259.263 663.959 257.65C676.916 255.851 690.571 256.064 704.923 258.289C719.274 260.515 732.97 265.392 746.01 272.92C758.885 280.354 767.414 288.782 771.597 298.204C775.779 307.532 774.59 317.546 768.029 328.247C761.387 338.9 748.306 349.861 728.788 361.13L649.541 406.883ZM620.313 366.116C629.879 371.639 645.388 371.639 654.954 366.116L692.498 344.44C710.704 333.929 720.217 324.364 721.038 315.747C721.858 307.129 716.978 299.767 706.399 293.659C698.444 289.066 689.136 286.012 678.474 284.497C667.813 282.982 656.783 283.242 645.383 285.278C634.066 287.267 623.323 291.197 613.154 297.068L574.256 319.525C564.69 325.048 564.69 334.002 574.256 339.525L620.313 366.116ZM509.969 302.409C519.534 307.932 535.044 307.932 544.61 302.409L578.217 283.005C586.746 278.081 592.774 272.707 596.3 266.883C599.909 261.012 600.77 255.212 598.884 249.483C596.998 243.659 591.995 238.403 583.876 233.716C573.461 227.702 561.077 224.767 546.725 224.909C532.374 225.051 517.653 229.478 502.563 238.19L467.971 258.162C458.405 263.684 458.405 272.639 467.971 278.162L509.969 302.409Z" fill="black"/>
</svg>
