<svg width="509" height="419" viewBox="0 0 509 419" fill="none" xmlns="http://www.w3.org/2000/svg">
<path fill-rule="evenodd" clip-rule="evenodd" d="M247.422 6.37617C233.409 -1.93283 216.04 -2.13395 201.84 5.84862L64.8356 82.863C61.0107 85.013 58.1229 88.5105 56.7305 92.6726L0.917385 259.516C-1.75586 267.507 1.56802 276.285 8.87298 280.485L245.669 416.65C251.105 419.776 257.79 419.785 263.234 416.667L500.099 281.016C508.772 276.05 511.609 264.878 506.368 256.366L415.172 108.204C413.669 105.767 411.599 103.728 409.133 102.267L247.422 6.37617ZM108.801 87.3859L214.302 28.0805C220.579 24.5518 228.255 24.6405 234.45 28.3139L374.526 111.375C379.397 114.262 380.033 120.603 376.224 124.105C351.279 147.047 309.401 176.066 259.73 185.751C257.873 186.113 255.892 185.777 254.144 184.788L108.78 102.547C102.89 99.2153 102.902 90.7016 108.801 87.3859ZM73.2382 123.587C74.9725 118.403 80.979 116.101 85.7122 118.779L237.32 204.553C240.042 206.093 241.731 208.986 241.731 212.128V369.981C241.731 376.678 234.518 380.838 228.754 377.524L33.2536 265.105C29.6707 263.045 28.0297 258.73 29.3466 254.794L73.2382 123.587ZM393.332 142.977C397.781 138.889 404.727 139.823 407.68 144.622L475.761 255.226C478.339 259.418 476.937 264.912 472.682 267.348L280.154 377.609C274.389 380.908 267.19 376.747 267.19 370.057V217.494C267.19 213.357 270.157 209.66 274.419 208.622C325.433 196.199 367.525 166.683 393.332 142.977Z" fill="#222222"/>
<path d="M218.283 138.141C215.116 139.953 209.982 139.953 206.815 138.141L134.876 96.9765C131.709 95.1643 131.709 92.2259 134.876 90.414L159.686 76.2172C165.605 72.8303 171.483 70.5853 177.321 69.4821C183.131 68.3635 188.656 68.2005 193.896 68.9929C199.109 69.7695 203.779 71.3386 207.906 73.7001C211.381 75.6889 213.676 77.7318 214.789 79.8291C215.875 81.9111 216.065 83.9773 215.359 86.028C214.686 87.9541 213.47 89.7952 211.71 91.5517C211.559 91.7029 211.6 91.8936 211.815 92.0169C212.067 92.1607 212.47 92.1659 212.74 92.0337C215.559 90.6565 218.998 89.7033 223.056 89.1741C227.346 88.5838 231.867 88.6537 236.618 89.3837C241.369 90.1141 245.904 91.7144 250.221 94.1845C254.483 96.6238 257.307 99.3892 258.692 102.481C260.076 105.542 259.683 108.827 257.511 112.339C255.312 115.834 250.981 119.431 244.519 123.128L218.283 138.141ZM208.607 124.764C211.774 126.576 216.908 126.576 220.075 124.764L232.505 117.652C238.532 114.203 241.682 111.064 241.953 108.237C242.225 105.409 240.609 102.994 237.107 100.989C234.473 99.4824 231.392 98.4803 227.862 97.9832C224.332 97.4861 220.681 97.5714 216.906 98.2395C213.16 98.8921 209.603 100.182 206.236 102.108L193.359 109.477C190.192 111.289 190.192 114.227 193.359 116.039L208.607 124.764ZM172.075 103.861C175.242 105.673 180.377 105.673 183.544 103.861L194.67 97.4936C197.494 95.878 199.489 94.1146 200.657 92.2036C201.851 90.2772 202.137 88.3741 201.512 86.4943C200.888 84.5833 199.231 82.8587 196.543 81.3208C193.095 79.3475 188.995 78.3844 184.244 78.431C179.493 78.4776 174.619 79.9302 169.623 82.7888L158.171 89.3421C155.004 91.154 155.004 94.0923 158.171 95.9045L172.075 103.861Z" fill="#222222" stroke="#222222" stroke-width="4"/>
</svg>
