<svg width="930" height="353" viewBox="0 0 930 353" fill="none" xmlns="http://www.w3.org/2000/svg">
<circle cx="176.5" cy="176.5" r="176.5" fill="white"/>
<path d="M772.881 278.421V74.7842H854.415C869.396 74.7842 881.891 77.0048 891.901 81.4461C901.91 85.8874 909.434 92.0522 914.472 99.9404C919.51 107.762 922.029 116.778 922.029 126.986C922.029 134.94 920.438 141.934 917.256 147.966C914.074 153.932 909.699 158.837 904.131 162.682C898.629 166.46 892.332 169.145 885.239 170.736V172.725C892.994 173.056 900.253 175.243 907.014 179.287C913.842 183.331 919.377 188.998 923.619 196.29C927.862 203.515 929.983 212.133 929.983 222.142C929.983 232.947 927.298 242.592 921.929 251.077C916.626 259.495 908.771 266.157 898.364 271.063C887.957 275.968 875.13 278.421 859.884 278.421H772.881ZM815.935 243.222H851.034C863.032 243.222 871.782 240.935 877.284 236.361C882.786 231.721 885.537 225.556 885.537 217.867C885.537 212.232 884.178 207.261 881.46 202.952C878.743 198.643 874.865 195.262 869.827 192.81C864.855 190.357 858.922 189.131 852.028 189.131H815.935V243.222ZM815.935 159.997H847.852C853.752 159.997 858.989 158.97 863.563 156.915C868.203 154.794 871.849 151.811 874.5 147.966C877.218 144.121 878.577 139.514 878.577 134.145C878.577 126.787 875.958 120.854 870.722 116.347C865.551 111.839 858.193 109.585 848.648 109.585H815.935V159.997Z" fill="white"/>
<path d="M577.881 74.7842H626.105L672.54 162.483H674.529L720.963 74.7842H769.188L694.912 206.432V278.421H652.156V206.432L577.881 74.7842Z" fill="white"/>
<path d="M594.253 148.077H550.702C549.906 142.442 548.282 137.438 545.83 133.062C543.377 128.621 540.228 124.843 536.384 121.727C532.539 118.612 528.098 116.225 523.06 114.568C518.088 112.911 512.686 112.082 506.852 112.082C496.313 112.082 487.132 114.701 479.31 119.938C471.488 125.108 465.422 132.665 461.114 142.608C456.805 152.485 454.651 164.483 454.651 178.602C454.651 193.119 456.805 205.316 461.114 215.193C465.489 225.07 471.587 232.527 479.409 237.565C487.231 242.603 496.279 245.122 506.554 245.122C512.321 245.122 517.657 244.36 522.563 242.835C527.534 241.311 531.942 239.09 535.787 236.173C539.632 233.19 542.813 229.578 545.332 225.335C547.918 221.093 549.707 216.254 550.702 210.818L594.253 211.017C593.126 220.364 590.309 229.379 585.801 238.062C581.36 246.68 575.361 254.402 567.804 261.23C560.313 267.991 551.365 273.361 540.957 277.338C530.616 281.249 518.917 283.205 505.858 283.205C487.695 283.205 471.455 279.095 457.136 270.875C442.884 262.655 431.616 250.757 423.33 235.179C415.11 219.601 411 200.742 411 178.602C411 156.396 415.176 137.504 423.528 121.926C431.881 106.348 443.216 94.483 457.534 86.3296C471.852 78.1099 487.96 74 505.858 74C517.657 74 528.595 75.6572 538.67 78.9716C548.813 82.286 557.795 87.125 565.616 93.4886C573.438 99.786 579.802 107.509 584.707 116.656C589.679 125.804 592.861 136.277 594.253 148.077Z" fill="white"/>
</svg>
