<svg width="167" height="136" viewBox="0 0 167 136" fill="none" xmlns="http://www.w3.org/2000/svg">
<path d="M137.861 110.812C134.915 113.468 131.758 115.678 128.392 117.443C125.062 119.186 121.741 120.183 118.431 120.433C115.157 120.662 112.083 119.837 109.209 117.956C106.851 116.367 104.961 114.481 103.54 112.297C102.134 110.054 100.582 107.477 98.8851 104.565L67.0121 49.8794L75.085 45.1742L106.765 99.5279C108.226 102.035 109.469 104.125 110.494 105.799C111.534 107.415 112.781 108.664 114.233 109.546C117 111.242 119.96 111.492 123.115 110.295C126.306 109.077 129.836 106.872 133.704 103.679L137.861 110.812ZM67.9682 80.8791L63.9075 73.9121L106.513 48.9999L109.013 56.9999L67.9682 80.8791Z" fill="white"/>
<path d="M30.3557 128.997C24.1513 127.611 19.2535 124.877 15.6623 120.796C12.0803 116.673 9.78591 111.68 8.77901 105.815C7.78141 99.9088 8.03147 93.6037 9.52919 86.8996C11.0548 80.0706 13.5165 74.2376 16.9141 69.4007C20.3627 64.5315 24.5965 61.0399 29.6155 58.926C34.6344 56.8121 40.3086 56.4621 46.6379 57.8761C52.8007 59.2529 57.7401 61.9958 61.4563 66.1049C65.1725 70.214 67.5964 75.2148 68.7283 81.1074C69.9017 87.0092 69.7396 93.3122 68.2419 100.016C66.7349 106.762 64.1946 112.555 60.6211 117.397C57.0475 122.238 52.6795 125.743 47.517 127.913C42.3638 130.04 36.6434 130.402 30.3557 128.997ZM0.418641 120.342L20.5122 30.3989L29.7563 32.4641L21.0073 71.6267L20.0079 71.4035L8.6634 122.184L0.418641 120.342ZM31.3305 120.231C36.0359 121.282 40.2152 120.97 43.8684 119.294C47.5217 117.618 50.5745 114.912 53.0268 111.175C55.5301 107.406 57.3539 102.961 58.4981 97.8394C59.633 92.7593 59.8859 88.0068 59.2569 83.5819C58.6279 79.1569 56.9961 75.4042 54.3617 72.3237C51.769 69.2525 48.0574 67.1774 43.2272 66.0983C38.5218 65.0471 34.3518 65.3178 30.7172 66.9103C27.1242 68.5121 24.1015 71.1813 21.6491 74.9178C19.2061 78.6127 17.3939 83.1043 16.2124 88.3927C15.0496 93.5977 14.7781 98.4335 15.3978 102.9C16.0268 107.325 17.6424 111.052 20.2445 114.082C22.8465 117.111 26.5419 119.161 31.3305 120.231Z" fill="white"/>
<path d="M167 23.2748L136.174 40.9547V38.0453L167 55.7252L163.037 62.8867L132.651 44.983L134.633 43.864L134.853 79H127.147V43.864L129.349 44.983L98.9633 62.8867L95 55.7252L126.046 38.0453V40.9547L95 23.2748L98.9633 16.1133L129.349 34.017L127.147 35.136V0H134.853L134.633 35.136L132.651 34.017L163.037 16.1133L167 23.2748Z" fill="white"/>
</svg>
