<svg width="360" height="228" viewBox="0 0 360 228" fill="none" xmlns="http://www.w3.org/2000/svg">
<path fill-rule="evenodd" clip-rule="evenodd" d="M104 0C112.837 0 120 7.16344 120 16V91.1628C120 99.9994 127.163 107.163 136 107.163H210.667C219.503 107.163 226.667 114.326 226.667 123.163V211.721C226.667 220.557 219.503 227.721 210.667 227.721H122.667C113.83 227.721 106.667 220.557 106.667 211.721V136.558C106.667 127.722 99.5033 120.558 90.6667 120.558H16C7.16344 120.558 0 113.395 0 104.558V16C0 7.16345 7.16344 0 16 0H104ZM344 0C352.837 0 360 7.16344 360 16V120.558L360 211.721C360 220.558 352.837 227.721 344 227.721H256C247.163 227.721 240 220.558 240 211.721V107.163L240 16C240 7.16343 247.163 0 256 0H344Z" fill="white"/>
</svg>
