<svg width="1093" height="343" viewBox="0 0 1093 343" fill="none" xmlns="http://www.w3.org/2000/svg">
<path d="M10 0C4.47716 0 0 4.47715 0 10V58.0129C0 63.5357 4.47715 68.0129 10 68.0129H196.069C201.592 68.0129 206.069 72.49 206.069 78.0129V137.041H265.097C270.62 137.041 275.097 132.564 275.097 127.041V9.99999C275.097 4.47714 270.62 0 265.097 0H10ZM206.069 137.041H148.056C142.533 137.041 138.056 141.518 138.056 147.041V195.054C138.056 200.577 142.533 205.054 148.056 205.054H196.069C201.592 205.054 206.069 200.577 206.069 195.054V137.041ZM11.0151 205.054C5.49227 205.054 1.01512 209.531 1.01512 215.054V332.095C1.01512 337.617 5.49227 342.095 11.0151 342.095H264.082C269.605 342.095 274.082 337.617 274.082 332.095V284.082C274.082 278.559 269.605 274.082 264.082 274.082H79.028C73.5052 274.082 69.028 269.605 69.028 264.082V215.054C69.028 209.531 64.5509 205.054 59.028 205.054H11.0151Z" fill="white"/>
<path d="M318.429 332.093C318.429 337.616 322.906 342.093 328.429 342.093H377.267C382.79 342.093 387.267 337.616 387.267 332.093V10.1254C387.267 4.60252 382.79 0.125366 377.267 0.125366H328.429C322.906 0.125366 318.429 4.60252 318.429 10.1254V332.093Z" fill="white"/>
<path d="M828.058 0.125366C822.535 0.125366 818.058 4.60252 818.058 10.1254V332.22C818.058 337.743 822.536 342.22 828.058 342.22H877.086C882.609 342.22 887.086 337.743 887.086 332.22V78.1382C887.086 72.6154 891.564 68.1382 897.086 68.1382H1014.13C1019.65 68.1382 1024.13 72.6154 1024.13 78.1382V332.22C1024.13 337.743 1028.6 342.22 1034.13 342.22H1082.14C1087.66 342.22 1092.14 337.743 1092.14 332.22V10.1254C1092.14 4.60252 1087.66 0.125366 1082.14 0.125366H828.058Z" fill="white"/>
<path d="M603.233 0.125366C507.812 0.125366 431.678 77.2743 431.678 171.68C431.678 266.086 507.812 342.22 603.233 342.22C697.639 342.22 773.773 266.086 773.773 171.68C773.773 77.2743 697.639 0.125366 603.233 0.125366ZM603.233 68.1382C659.065 68.1382 705.76 114.834 705.76 171.68C705.76 228.527 659.065 274.207 603.233 274.207C546.387 274.207 499.691 228.527 499.691 171.68C499.691 114.834 546.387 68.1382 603.233 68.1382Z" fill="white"/>
</svg>
