<svg width="1165" height="520" viewBox="0 0 1165 520" fill="none" xmlns="http://www.w3.org/2000/svg">
<path d="M87.4876 519.305C70.6167 519.305 55.5534 515.208 42.2977 507.014C29.283 498.578 18.9195 487.13 11.2071 472.669C3.7357 457.968 0 441.338 0 422.78C0 404.222 3.7357 387.833 11.2071 373.613C18.9195 359.393 29.283 348.186 42.2977 339.992C55.5534 331.798 70.4962 327.7 87.1261 327.7C100.864 327.7 113.155 330.351 124.001 335.654C135.088 340.956 144.126 348.548 151.115 358.429C158.345 368.07 162.925 379.398 164.853 392.412H138.1C135.69 380.603 130.147 370.962 121.47 363.491C112.794 356.019 101.587 352.284 87.8491 352.284C76.0395 352.284 65.7965 355.176 57.12 360.96C48.4436 366.744 41.6952 374.939 36.8749 385.543C32.0547 396.148 29.6446 408.56 29.6446 422.78C29.6446 437 32.0547 449.532 36.8749 460.378C41.6952 471.223 48.4436 479.659 57.12 485.684C66.0375 491.709 76.401 494.722 88.2106 494.722C101.466 494.722 112.553 491.107 121.47 483.877C130.388 476.405 136.052 466.765 138.462 454.955H165.214C163.045 467.729 158.225 479.056 150.753 488.938C143.523 498.578 134.485 506.05 123.64 511.352C112.794 516.654 100.743 519.305 87.4876 519.305Z" fill="white"/>
<path d="M283.16 519.305C265.084 519.305 249.177 515.088 235.439 506.652C221.702 498.217 210.976 486.769 203.264 472.308C195.793 457.606 192.057 441.097 192.057 422.78C192.057 404.222 195.913 387.833 203.626 373.613C211.338 359.393 221.943 348.186 235.439 339.992C249.177 331.798 265.084 327.7 283.16 327.7C301.477 327.7 317.384 331.798 330.88 339.992C344.618 348.186 355.223 359.393 362.694 373.613C370.406 387.833 374.263 404.222 374.263 422.78C374.263 441.097 370.406 457.606 362.694 472.308C355.223 486.769 344.618 498.217 330.88 506.652C317.384 515.088 301.477 519.305 283.16 519.305ZM283.16 494.722C295.692 494.722 306.538 491.709 315.697 485.684C324.855 479.418 331.965 470.862 337.026 460.016C342.087 449.171 344.618 436.638 344.618 422.418C344.618 401.209 338.954 384.218 327.627 371.444C316.54 358.67 301.718 352.284 283.16 352.284C264.843 352.284 250.021 358.67 238.693 371.444C227.365 384.218 221.702 401.209 221.702 422.418C221.702 436.638 224.232 449.171 229.293 460.016C234.355 470.862 241.465 479.418 250.623 485.684C260.023 491.709 270.868 494.722 283.16 494.722Z" fill="white"/>
<path d="M551.763 515.69V472.669L555.378 473.754C550.799 487.733 542.363 498.819 530.072 507.014C518.021 515.208 503.56 519.305 486.689 519.305C470.06 519.305 455.478 515.329 442.946 507.375C430.654 499.422 421.013 488.335 414.024 474.116C407.276 459.896 403.902 443.266 403.902 424.226C403.902 404.945 407.396 388.074 414.386 373.613C421.375 359.152 431.136 347.945 443.669 339.992C456.201 332.039 470.903 328.062 487.774 328.062C505.127 328.062 519.708 332.28 531.518 340.715C543.327 349.15 551.401 361.081 555.74 376.505L549.955 377.228V255.396H578.877V515.69H551.763ZM492.112 493.999C510.67 493.999 525.131 487.733 535.494 475.2C546.099 462.426 551.401 445.074 551.401 423.141C551.401 401.691 546.099 384.7 535.494 372.167C524.89 359.634 510.429 353.368 492.112 353.368C473.795 353.368 459.455 359.634 449.091 372.167C438.728 384.7 433.546 402.053 433.546 424.226C433.546 445.917 438.728 463.029 449.091 475.562C459.455 487.853 473.795 493.999 492.112 493.999Z" fill="white"/>
<path d="M712.438 519.305C694.844 519.305 679.299 515.208 665.802 507.014C652.306 498.578 641.701 487.13 633.989 472.669C626.276 458.209 622.42 441.579 622.42 422.78C622.42 403.981 626.156 387.471 633.627 373.252C641.339 358.791 652.065 347.584 665.802 339.63C679.54 331.677 695.326 327.7 713.161 327.7C730.273 327.7 745.095 331.436 757.628 338.907C770.402 346.379 780.163 356.863 786.911 370.36C793.9 383.856 797.395 399.763 797.395 418.08C797.395 420.49 797.275 422.78 797.034 424.949C797.034 427.118 796.793 429.528 796.311 432.179H644.111V407.958H778.596L769.197 421.334C769.197 399.161 764.256 382.169 754.374 370.36C744.734 358.309 730.996 352.284 713.161 352.284C694.844 352.284 680.022 358.67 668.694 371.444C657.608 383.977 652.065 400.968 652.065 422.418C652.065 444.35 657.608 461.944 668.694 475.2C680.022 488.215 695.085 494.722 713.884 494.722C725.694 494.722 736.057 492.191 744.975 487.13C753.892 481.828 760.4 474.357 764.497 464.716H791.972C785.947 481.587 775.825 494.963 761.605 504.845C747.626 514.485 731.237 519.305 712.438 519.305Z" fill="white"/>
<path d="M953.317 515.69L892.221 430.01L819.194 331.315H852.815L909.212 410.488L986.939 515.69H953.317ZM894.028 411.934L951.871 331.315H984.408L909.212 431.456L894.028 411.934ZM906.32 431.818L843.777 515.69H810.879L892.221 411.211L906.32 431.818Z" fill="white"/>
<path d="M116.908 260.294L217.41 0H243.44L145.468 260.294H116.908ZM323.697 260.294L225.725 0H253.562L354.065 260.294H323.697ZM166.798 155.092H302.729V181.121H166.798V155.092Z" fill="white"/>
<path d="M395.834 260.294V0H424.756V260.294H395.834Z" fill="white"/>
<path d="M573.786 263.547C556.433 263.547 541.852 259.33 530.043 250.894C518.233 242.459 510.159 230.529 505.821 215.104L511.605 214.381V334.405H482.684V75.919H509.797V118.94L505.821 117.855C510.4 103.635 519.077 92.5489 531.85 84.5955C544.624 76.401 559.446 72.3038 576.317 72.3038C592.706 72.3038 606.926 76.2805 618.976 84.2339C631.268 92.1874 640.788 103.274 647.536 117.494C654.285 131.713 657.659 148.343 657.659 167.383C657.659 186.664 654.164 203.535 647.175 217.996C640.185 232.457 630.424 243.664 617.892 251.617C605.359 259.571 590.657 263.547 573.786 263.547ZM569.448 238.241C587.765 238.241 602.105 231.975 612.469 219.442C622.832 206.668 628.014 189.316 628.014 167.383C628.014 145.692 622.832 128.701 612.469 116.409C602.105 103.876 587.765 97.6102 569.448 97.6102C551.131 97.6102 536.67 103.997 526.066 116.771C515.461 129.303 510.159 146.536 510.159 168.468C510.159 189.918 515.461 206.909 526.066 219.442C536.67 231.975 551.131 238.241 569.448 238.241Z" fill="white"/>
<path d="M701.219 260.294V75.919H730.141V260.294H701.219ZM699.05 33.9828V0H732.31V33.9828H699.05Z" fill="white"/>
<path d="M788.068 260.294V75.919H815.182V119.301H816.99V260.294H788.068ZM920.023 260.294V139.546C920.023 125.568 916.528 115.084 909.539 108.094C902.549 101.105 892.186 97.6102 878.448 97.6102C866.397 97.6102 855.672 100.261 846.273 105.564C837.114 110.866 829.884 118.217 824.582 127.616C819.521 137.016 816.99 147.982 816.99 160.514L812.29 116.771C818.556 103.033 828.076 92.1874 840.85 84.2339C853.865 76.2805 868.567 72.3038 884.955 72.3038C904.236 72.3038 919.661 77.8471 931.23 88.9337C943.039 99.7793 948.944 114.12 948.944 131.954V260.294H920.023Z" fill="white"/>
<path d="M1080.04 263.909C1062.45 263.909 1046.9 259.812 1033.41 251.617C1019.91 243.182 1009.31 231.734 1001.59 217.273C993.881 202.812 990.025 186.182 990.025 167.383C990.025 148.584 993.76 132.075 1001.23 117.855C1008.94 103.394 1019.67 92.1874 1033.41 84.2339C1047.14 76.2805 1062.93 72.3038 1080.77 72.3038C1097.88 72.3038 1112.7 76.0395 1125.23 83.5109C1138.01 90.9823 1147.77 101.466 1154.52 114.963C1161.51 128.46 1165 144.367 1165 162.684C1165 165.094 1164.88 167.383 1164.64 169.552C1164.64 171.722 1164.4 174.132 1163.92 176.783H1011.72V152.561H1146.2L1136.8 165.937C1136.8 143.764 1131.86 126.773 1121.98 114.963C1112.34 102.912 1098.6 96.8871 1080.77 96.8871C1062.45 96.8871 1047.63 103.274 1036.3 116.048C1025.21 128.58 1019.67 145.572 1019.67 167.022C1019.67 188.954 1025.21 206.548 1036.3 219.804C1047.63 232.818 1062.69 239.326 1081.49 239.326C1093.3 239.326 1103.66 236.795 1112.58 231.734C1121.5 226.431 1128 218.96 1132.1 209.32H1159.58C1153.55 226.19 1143.43 239.567 1129.21 249.448C1115.23 259.089 1098.84 263.909 1080.04 263.909Z" fill="white"/>
</svg>
