<svg width="1062" height="229" viewBox="0 0 1062 229" fill="none" xmlns="http://www.w3.org/2000/svg">
<path d="M592.447 7.69556C622.734 7.69556 647.749 10.6135 667.491 16.4494C687.234 22.2852 702.714 30.2535 713.931 40.354C725.148 50.4545 733 62.014 737.487 75.0325C742.199 87.8266 744.554 101.294 744.554 115.435C744.554 129.575 741.974 143.155 736.814 156.174C731.654 168.968 723.129 180.415 711.239 190.515C699.573 200.616 683.981 208.584 664.462 214.42C645.169 220.256 621.163 223.174 592.447 223.174H350.152V7.69556H592.447ZM434.282 155.837H589.082C601.645 155.837 612.302 155.051 621.051 153.48C629.801 151.684 636.755 149.103 641.915 145.736C647.3 142.369 651.114 138.217 653.357 133.279C655.825 128.117 657.059 122.168 657.059 115.435C657.059 108.701 655.825 102.865 653.357 97.9271C651.114 92.7646 647.3 88.4999 641.915 85.1331C636.755 81.7662 629.801 79.2972 621.051 77.726C612.302 75.9304 601.645 75.0325 589.082 75.0325H434.282V155.837Z" fill="white"/>
<path d="M891.565 108.076C852.493 108.076 821.168 106.617 797.59 103.699C774.237 100.557 757.283 95.394 746.729 88.2114C736.4 81.0288 731.235 71.3772 731.235 59.2565C731.235 46.9114 736.4 36.362 746.729 27.6082C757.283 18.8543 774.237 12.1207 797.59 7.40707C821.168 2.46902 852.493 0 891.565 0C930.862 0 962.187 2.46902 985.54 7.40707C1009.12 12.1207 1026.07 18.8543 1036.4 27.6082C1046.96 36.362 1052.23 46.9114 1052.23 59.2565C1052.23 71.3772 1046.96 81.0288 1036.4 88.2114C1026.07 95.394 1009.12 100.557 985.54 103.699C962.187 106.617 930.862 108.076 891.565 108.076ZM891.565 94.6084C912.673 94.6084 928.841 93.8228 940.068 92.2516C951.296 90.6804 959.043 88.5481 963.309 85.8546C967.576 83.1611 969.709 80.131 969.709 76.7641C969.709 73.3973 967.576 70.5916 963.309 68.347C959.043 65.878 951.296 64.0823 940.068 62.9601C928.841 61.8378 912.673 61.2766 891.565 61.2766C870.682 61.2766 854.851 61.8378 844.073 62.9601C833.519 64.0823 826.333 65.878 822.516 68.347C818.923 70.5916 817.126 73.3973 817.126 76.7641C817.126 80.131 818.923 83.1611 822.516 85.8546C826.333 88.5481 833.519 90.6804 844.073 92.2516C854.851 93.8228 870.682 94.6084 891.565 94.6084ZM891.565 228.946C850.023 228.946 816.79 226.028 791.864 220.192C766.939 214.356 748.975 206.388 737.972 196.287C726.969 186.187 721.467 174.852 721.467 162.282C721.467 146.795 727.193 135.011 738.646 126.93C750.322 118.85 768.623 113.351 793.548 110.433C818.474 107.515 851.146 106.056 891.565 106.056C931.985 106.056 964.657 107.515 989.582 110.433C1014.73 113.351 1033.03 118.85 1044.49 126.93C1056.16 135.011 1062 146.795 1062 162.282C1062 174.852 1056.39 186.187 1045.16 196.287C1034.16 206.388 1016.19 214.356 991.266 220.192C966.341 226.028 933.107 228.946 891.565 228.946ZM891.565 165.312C914.919 165.312 932.883 164.751 945.458 163.629C958.257 162.282 967.127 160.374 972.067 157.905C977.007 155.212 979.477 151.957 979.477 148.141C979.477 144.326 977.007 141.183 972.067 138.714C967.127 136.245 958.257 134.449 945.458 133.327C932.883 131.98 914.919 131.307 891.565 131.307C868.436 131.307 850.809 131.98 838.683 133.327C826.558 134.449 818.249 136.245 813.758 138.714C809.492 141.183 807.358 144.326 807.358 148.141C807.358 151.957 809.492 155.212 813.758 157.905C818.249 160.374 826.558 162.282 838.683 163.629C850.809 164.751 868.436 165.312 891.565 165.312Z" fill="white"/>
<path d="M136.407 154.622C106.393 154.622 81.1946 151.378 60.8119 144.89C40.6533 138.401 25.4223 129.452 15.119 118.042C5.03966 106.631 0 93.5428 0 78.7765C0 62.6677 5.9356 48.9081 17.8068 37.4977C29.678 26.0873 48.6047 17.3617 74.587 11.3209C100.793 5.05634 135.175 1.92407 177.732 1.92407C220.289 1.92407 255.455 4.49701 283.229 9.64288C311.003 14.7887 331.61 22.7313 345.049 33.4705C358.712 43.9859 365.544 57.7455 365.544 74.7493C365.544 81.685 363.64 88.9563 359.832 96.5632C356.024 104.17 349.305 112.336 339.673 121.062C338.777 121.957 335.866 124.53 330.938 128.781C326.01 133.032 319.739 138.29 312.123 144.554C304.732 150.819 296.668 157.531 287.933 164.69C279.197 171.849 270.574 179.009 262.062 186.168C253.551 193.328 245.712 199.816 238.544 205.633C231.6 211.45 226.001 216.149 221.745 219.728C217.489 223.308 215.362 225.098 215.362 225.098H102.137L314.811 74.7493L336.313 61.3253C318.843 76.0917 302.604 89.2919 287.597 100.926C272.59 112.56 257.471 122.404 242.24 130.459C227.233 138.289 211.218 144.33 194.195 148.581C177.172 152.608 157.909 154.622 136.407 154.622ZM177.732 57.2981C145.926 57.2981 122.296 58.9761 106.841 62.3321C91.6099 65.4643 83.9944 71.5051 83.9944 80.4544C83.9944 88.7326 91.6099 94.7734 106.841 98.5768C122.296 102.38 145.926 104.282 177.732 104.282C209.538 104.282 234.736 102.38 253.327 98.5768C272.142 94.7734 281.549 88.7326 281.549 80.4544C281.549 74.4137 277.293 69.7152 268.782 66.3593C260.271 63.0033 248.287 60.6541 232.832 59.3117C217.377 57.9693 199.011 57.2981 177.732 57.2981Z" fill="white"/>
</svg>
